<!-- Generated by IcoMoon.io -->
<svg version="1.1" xmlns="http://www.w3.org/2000/svg" width="32" height="32" viewBox="0 0 32 32">
<path fill="#fff" d="M4.292 5.708c-0.181-0.181-0.293-0.431-0.293-0.708 0-0.553 0.448-1.001 1.001-1.001 0.277 0 0.527 0.112 0.708 0.293v0l10.292 10.294 10.292-10.294c0.178-0.165 0.418-0.267 0.681-0.267 0.553 0 1.002 0.449 1.002 1.002 0 0.263-0.101 0.503-0.267 0.681l0.001-0.001-10.294 10.292 10.294 10.292c0.181 0.181 0.293 0.431 0.293 0.708 0 0.553-0.448 1.001-1.001 1.001-0.276 0-0.527-0.112-0.708-0.293v0l-10.292-10.294-10.292 10.294c-0.181 0.181-0.431 0.293-0.708 0.293-0.553 0-1.001-0.448-1.001-1.001 0-0.276 0.112-0.527 0.293-0.708v0l10.294-10.292-10.294-10.292z"></path>
</svg>
